solid OpenSCAD_Model
  facet normal 0 0 1
    outer loop
      vertex -39.85 3.8000000000000003 2.5500000000000043
      vertex -32 3.9000000000000004 2.5500000000000043
      vertex -38.85 4.800000000000001 2.5500000000000043
    endloop
  endfacet
  facet normal 0 0 1
    outer loop
      vertex -38.85 4.800000000000001 2.5500000000000043
      vertex -32 3.9000000000000004 2.5500000000000043
      vertex -32 4.800000000000001 2.5500000000000043
    endloop
  endfacet
  facet normal 0 -1 0
    outer loop
      vertex -39.85 3.8000000000000003 2.5500000000000043
      vertex -26.91 3.8000000000000003 2
      vertex -20.91 3.8000000000000003 2
    endloop
  endfacet
  facet normal 0 -1 0
    outer loop
      vertex -39.85 3.8000000000000003 2.5500000000000043
      vertex -26.91 3.8000000000000003 1.5
      vertex -26.91 3.8000000000000003 2
    endloop
  endfacet
  facet normal 0 -1 0
    outer loop
      vertex -39.85 3.8000000000000003 2.5500000000000043
      vertex -20.91 3.8000000000000003 2
      vertex -3 3.8000000000000003 1.5
    endloop
  endfacet
  facet normal 0 0 1
    outer loop
      vertex -39.85 3.8000000000000003 2.5500000000000043
      vertex -38.85 4.800000000000001 2.5500000000000043
      vertex -38.85 11 2.5500000000000043
    endloop
  endfacet
  facet normal 0 -1 0
    outer loop
      vertex -39.85 3.8000000000000003 2.5500000000000043
      vertex -39.85 3.8000000000000003 0.9500000000000028
      vertex -26.91 3.8000000000000003 1.5
    endloop
  endfacet
  facet normal 0 -1 0
    outer loop
      vertex -26.91 3.8000000000000003 1.5
      vertex -39.85 3.8000000000000003 0.9500000000000028
      vertex -20.91 3.8000000000000003 1.5
    endloop
  endfacet
  facet normal 0 -1 0
    outer loop
      vertex -20.91 3.8000000000000003 1.5
      vertex -39.85 3.8000000000000003 0.9500000000000028
      vertex -3 3.8000000000000003 1.5
    endloop
  endfacet
  facet normal -1 0 0
    outer loop
      vertex -39.85 3.8000000000000003 2.5500000000000043
      vertex -39.85 12 0.9500000000000028
      vertex -39.85 3.8000000000000003 0.9500000000000028
    endloop
  endfacet
  facet normal 0 0 1
    outer loop
      vertex -39.85 3.8000000000000003 2.5500000000000043
      vertex 39.85 3.8000000000000003 2.5500000000000043
      vertex -32 3.9000000000000004 2.5500000000000043
    endloop
  endfacet
  facet normal 0 -1 0
    outer loop
      vertex -39.85 3.8000000000000003 2.5500000000000043
      vertex -3 3.8000000000000003 1.5
      vertex -3 3.8000000000000003 2
    endloop
  endfacet
  facet normal 0 -1 0
    outer loop
      vertex -39.85 3.8000000000000003 2.5500000000000043
      vertex -3 3.8000000000000003 2
      vertex 39.85 3.8000000000000003 2.5500000000000043
    endloop
  endfacet
  facet normal 0 0 1
    outer loop
      vertex 39.85 3.8000000000000003 2.5500000000000043
      vertex -18 3.9000000000000004 2.5500000000000043
      vertex -32 3.9000000000000004 2.5500000000000043
    endloop
  endfacet
  facet normal 0 -1 0
    outer loop
      vertex -20.91 3.8000000000000003 2
      vertex -20.91 3.8000000000000003 1.5
      vertex -3 3.8000000000000003 1.5
    endloop
  endfacet
  facet normal 0 -1 0
    outer loop
      vertex -3 3.8000000000000003 1.5
      vertex -39.85 3.8000000000000003 0.9500000000000028
      vertex 3 3.8000000000000003 1.5
    endloop
  endfacet
  facet normal 0 0 1
    outer loop
      vertex -39.85 3.8000000000000003 2.5500000000000043
      vertex -38.85 11 2.5500000000000043
      vertex -39.85 12 2.5500000000000043
    endloop
  endfacet
  facet normal 0 0 1
    outer loop
      vertex -38.85 11 2.5500000000000043
      vertex -32 11 2.5500000000000043
      vertex -32 11.9 2.5500000000000043
    endloop
  endfacet
  facet normal -1 0 0
    outer loop
      vertex -39.85 3.8000000000000003 2.5500000000000043
      vertex -39.85 12 2.5500000000000043
      vertex -39.85 12 0.9500000000000028
    endloop
  endfacet
  facet normal 0 0 1
    outer loop
      vertex -38.85 11 2.5500000000000043
      vertex -32 11.9 2.5500000000000043
      vertex -39.85 12 2.5500000000000043
    endloop
  endfacet
  facet normal 0 0 1
    outer loop
      vertex -39.85 12 2.5500000000000043
      vertex -32 11.9 2.5500000000000043
      vertex -18 11.9 2.5500000000000043
    endloop
  endfacet
  facet normal 0 1 0
    outer loop
      vertex -39.85 12 2.5500000000000043
      vertex -20.91 12 2
      vertex -26.91 12 2
    endloop
  endfacet
  facet normal 0 1 0
    outer loop
      vertex -39.85 12 2.5500000000000043
      vertex -3 12 2
      vertex -20.91 12 2
    endloop
  endfacet
  facet normal 0 1 0
    outer loop
      vertex -39.85 12 2.5500000000000043
      vertex -26.91 12 2
      vertex -39.85 12 0.9500000000000028
    endloop
  endfacet
  facet normal 0 1 0
    outer loop
      vertex -26.91 12 2
      vertex -26.91 12 1.5
      vertex -39.85 12 0.9500000000000028
    endloop
  endfacet
  facet normal 0 1 0
    outer loop
      vertex -26.91 12 1.5
      vertex -20.91 12 1.5
      vertex -39.85 12 0.9500000000000028
    endloop
  endfacet
  facet normal 0 1 0
    outer loop
      vertex -3 12 2
      vertex -39.85 12 0.9500000000000028
      vertex -20.91 12 1.5
    endloop
  endfacet
  facet normal 0 1 0
    outer loop
      vertex -39.85 12 2.5500000000000043
      vertex 3 12 2
      vertex -3 12 2
    endloop
  endfacet
  facet normal 0 0 1
    outer loop
      vertex -39.85 12 2.5500000000000043
      vertex -18 11.9 2.5500000000000043
      vertex 39.85 12 2.5500000000000043
    endloop
  endfacet
  facet normal 0 1 0
    outer loop
      vertex -20.91 12 2
      vertex -3 12 2
      vertex -20.91 12 1.5
    endloop
  endfacet
  facet normal 0 1 0
    outer loop
      vertex -3 12 2
      vertex -3 12 1.5
      vertex -39.85 12 0.9500000000000028
    endloop
  endfacet
  facet normal 0 1 0
    outer loop
      vertex -3 12 1.5
      vertex 39.85 12 0.9500000000000028
      vertex -39.85 12 0.9500000000000028
    endloop
  endfacet
  facet normal 0 0 1
    outer loop
      vertex 38.85 4.800000000000001 2.5500000000000043
      vertex -18 4.800000000000001 2.5500000000000043
      vertex -18 3.9000000000000004 2.5500000000000043
    endloop
  endfacet
  facet normal 0 0 1
    outer loop
      vertex 39.85 3.8000000000000003 2.5500000000000043
      vertex 38.85 4.800000000000001 2.5500000000000043
      vertex -18 3.9000000000000004 2.5500000000000043
    endloop
  endfacet
  facet normal 0 -1 0
    outer loop
      vertex -3 3.8000000000000003 2
      vertex 3 3.8000000000000003 2
      vertex 39.85 3.8000000000000003 2.5500000000000043
    endloop
  endfacet
  facet normal 0 -1 0
    outer loop
      vertex 3 3.8000000000000003 2
      vertex 20.91 3.8000000000000003 1.5
      vertex 20.91 3.8000000000000003 2
    endloop
  endfacet
  facet normal 0 -1 0
    outer loop
      vertex 3 3.8000000000000003 2
      vertex 3 3.8000000000000003 1.5
      vertex 39.85 3.8000000000000003 0.9500000000000028
    endloop
  endfacet
  facet normal 0 -1 0
    outer loop
      vertex 3 3.8000000000000003 2
      vertex 20.91 3.8000000000000003 2
      vertex 39.85 3.8000000000000003 2.5500000000000043
    endloop
  endfacet
  facet normal 0 -1 0
    outer loop
      vertex 20.91 3.8000000000000003 2
      vertex 26.91 3.8000000000000003 2
      vertex 39.85 3.8000000000000003 2.5500000000000043
    endloop
  endfacet
  facet normal 0 0 1
    outer loop
      vertex 39.85 3.8000000000000003 2.5500000000000043
      vertex 39.85 12 2.5500000000000043
      vertex 38.85 4.800000000000001 2.5500000000000043
    endloop
  endfacet
  facet normal 1 0 0
    outer loop
      vertex 39.85 3.8000000000000003 2.5500000000000043
      vertex 39.85 3.8000000000000003 0.9500000000000028
      vertex 39.85 12 2.5500000000000043
    endloop
  endfacet
  facet normal 0 -1 0
    outer loop
      vertex 3 3.8000000000000003 2
      vertex 39.85 3.8000000000000003 0.9500000000000028
      vertex 20.91 3.8000000000000003 1.5
    endloop
  endfacet
  facet normal 0 -1 0
    outer loop
      vertex 26.91 3.8000000000000003 2
      vertex 26.91 3.8000000000000003 1.5
      vertex 39.85 3.8000000000000003 0.9500000000000028
    endloop
  endfacet
  facet normal 0 -1 0
    outer loop
      vertex 20.91 3.8000000000000003 1.5
      vertex 39.85 3.8000000000000003 0.9500000000000028
      vertex 26.91 3.8000000000000003 1.5
    endloop
  endfacet
  facet normal 0 -1 0
    outer loop
      vertex 26.91 3.8000000000000003 2
      vertex 39.85 3.8000000000000003 0.9500000000000028
      vertex 39.85 3.8000000000000003 2.5500000000000043
    endloop
  endfacet
  facet normal 0 0 1
    outer loop
      vertex 38.85 11 2.5500000000000043
      vertex -18 11.9 2.5500000000000043
      vertex -18 11 2.5500000000000043
    endloop
  endfacet
  facet normal 0 1 0
    outer loop
      vertex -39.85 12 2.5500000000000043
      vertex 39.85 12 2.5500000000000043
      vertex 3 12 2
    endloop
  endfacet
  facet normal 0 0 1
    outer loop
      vertex 38.85 11 2.5500000000000043
      vertex 39.85 12 2.5500000000000043
      vertex -18 11.9 2.5500000000000043
    endloop
  endfacet
  facet normal 0 1 0
    outer loop
      vertex 3 12 2
      vertex 39.85 12 2.5500000000000043
      vertex 3 12 1.5
    endloop
  endfacet
  facet normal 0 1 0
    outer loop
      vertex 20.91 12 2
      vertex 20.91 12 1.5
      vertex 3 12 1.5
    endloop
  endfacet
  facet normal 0 1 0
    outer loop
      vertex -3 12 1.5
      vertex 3 12 1.5
      vertex 39.85 12 0.9500000000000028
    endloop
  endfacet
  facet normal 0 0 1
    outer loop
      vertex 38.85 4.800000000000001 2.5500000000000043
      vertex 39.85 12 2.5500000000000043
      vertex 38.85 11 2.5500000000000043
    endloop
  endfacet
  facet normal 0 1 0
    outer loop
      vertex 20.91 12 2
      vertex 3 12 1.5
      vertex 39.85 12 2.5500000000000043
    endloop
  endfacet
  facet normal 0 1 0
    outer loop
      vertex 20.91 12 2
      vertex 39.85 12 2.5500000000000043
      vertex 26.91 12 2
    endloop
  endfacet
  facet normal 0 1 0
    outer loop
      vertex 26.91 12 2
      vertex 39.85 12 2.5500000000000043
      vertex 26.91 12 1.5
    endloop
  endfacet
  facet normal 1 0 0
    outer loop
      vertex 39.85 12 2.5500000000000043
      vertex 39.85 3.8000000000000003 0.9500000000000028
      vertex 39.85 12 0.9500000000000028
    endloop
  endfacet
  facet normal 0 1 0
    outer loop
      vertex 3 12 1.5
      vertex 20.91 12 1.5
      vertex 39.85 12 0.9500000000000028
    endloop
  endfacet
  facet normal 0 1 0
    outer loop
      vertex 20.91 12 1.5
      vertex 26.91 12 1.5
      vertex 39.85 12 0.9500000000000028
    endloop
  endfacet
  facet normal 0 1 0
    outer loop
      vertex 39.85 12 2.5500000000000043
      vertex 39.85 12 0.9500000000000028
      vertex 26.91 12 1.5
    endloop
  endfacet
  facet normal 0 -1 0
    outer loop
      vertex -39.85 3.8000000000000003 0.9500000000000028
      vertex 39.85 3.8000000000000003 0.9500000000000028
      vertex 3 3.8000000000000003 1.5
    endloop
  endfacet
  facet normal 0 1 0
    outer loop
      vertex -38.85 4.800000000000001 2.5500000000000043
      vertex -32 4.800000000000001 2.5500000000000043
      vertex -32 4.800000000000001 0.9500000000000028
    endloop
  endfacet
  facet normal 1 0 0
    outer loop
      vertex -38.85 4.800000000000001 2.5500000000000043
      vertex -38.85 4.800000000000001 0.9500000000000028
      vertex -38.85 11 2.5500000000000043
    endloop
  endfacet
  facet normal 0 1 0
    outer loop
      vertex -38.85 4.800000000000001 2.5500000000000043
      vertex -32 4.800000000000001 0.9500000000000028
      vertex -38.85 4.800000000000001 0.9500000000000028
    endloop
  endfacet
  facet normal 0 -1 0
    outer loop
      vertex -38.85 11 2.5500000000000043
      vertex -38.85 11 0.9500000000000028
      vertex -32 11 2.5500000000000043
    endloop
  endfacet
  facet normal 1 0 0
    outer loop
      vertex -38.85 11 2.5500000000000043
      vertex -38.85 4.800000000000001 0.9500000000000028
      vertex -38.85 11 0.9500000000000028
    endloop
  endfacet
  facet normal 0 -1 0
    outer loop
      vertex -38.85 11 0.9500000000000028
      vertex -32 11 0.9500000000000028
      vertex -32 11 2.5500000000000043
    endloop
  endfacet
  facet normal 0 1 0
    outer loop
      vertex 38.85 4.800000000000001 2.5500000000000043
      vertex 38.85 4.800000000000001 0.9500000000000028
      vertex -18 4.800000000000001 2.5500000000000043
    endloop
  endfacet
  facet normal 0 1 0
    outer loop
      vertex 38.85 4.800000000000001 0.9500000000000028
      vertex -18 4.800000000000001 0.9500000000000028
      vertex -18 4.800000000000001 2.5500000000000043
    endloop
  endfacet
  facet normal -1 0 0
    outer loop
      vertex 38.85 4.800000000000001 2.5500000000000043
      vertex 38.85 11 0.9500000000000028
      vertex 38.85 4.800000000000001 0.9500000000000028
    endloop
  endfacet
  facet normal 0 -1 0
    outer loop
      vertex 38.85 11 2.5500000000000043
      vertex -18 11 2.5500000000000043
      vertex -18 11 0.9500000000000028
    endloop
  endfacet
  facet normal 0 -1 0
    outer loop
      vertex 38.85 11 2.5500000000000043
      vertex -18 11 0.9500000000000028
      vertex 38.85 11 0.9500000000000028
    endloop
  endfacet
  facet normal -1 0 0
    outer loop
      vertex 38.85 4.800000000000001 2.5500000000000043
      vertex 38.85 11 2.5500000000000043
      vertex 38.85 11 0.9500000000000028
    endloop
  endfacet
  facet normal 0 -0.2588190451025549 0.9659258262890591
    outer loop
      vertex -26.91 3.8000000000000003 2
      vertex -26.91 3.6750000000000003 1.966506350946105
      vertex -20.91 3.8000000000000003 2
    endloop
  endfacet
  facet normal 0 -0.2588190451025549 0.9659258262890591
    outer loop
      vertex -26.91 3.6750000000000003 1.966506350946105
      vertex -20.91 3.6750000000000003 1.966506350946105
      vertex -20.91 3.8000000000000003 2
    endloop
  endfacet
  facet normal 0 -0.7071067811865287 0.7071067811865664
    outer loop
      vertex -26.91 3.6750000000000003 1.966506350946105
      vertex -20.91 3.5834936490538905 1.875
      vertex -20.91 3.6750000000000003 1.966506350946105
    endloop
  endfacet
  facet normal -1 0 0
    outer loop
      vertex -26.91 3.8000000000000003 2
      vertex -26.91 3.8000000000000003 1.5
      vertex -26.91 3.6750000000000003 1.966506350946105
    endloop
  endfacet
  facet normal -1 0 0
    outer loop
      vertex -26.91 3.6750000000000003 1.966506350946105
      vertex -26.91 3.8000000000000003 1.5
      vertex -26.91 3.5834936490538905 1.875
    endloop
  endfacet
  facet normal -1 0 0
    outer loop
      vertex -26.91 3.5834936490538905 1.875
      vertex -26.91 3.8000000000000003 1.5
      vertex -26.91 3.5500000000000003 1.75
    endloop
  endfacet
  facet normal -1 0 0
    outer loop
      vertex -26.91 3.5500000000000003 1.75
      vertex -26.91 3.8000000000000003 1.5
      vertex -26.91 3.5834936490538905 1.625
    endloop
  endfacet
  facet normal -5.446799769617814e-19 -0.7071067811865287 0.7071067811865664
    outer loop
      vertex -26.91 3.6750000000000003 1.966506350946105
      vertex -26.91 3.5834936490538905 1.875
      vertex -20.91 3.5834936490538905 1.875
    endloop
  endfacet
  facet normal 0 -0.9659258262890685 0.25881904510251963
    outer loop
      vertex -26.91 3.5834936490538905 1.875
      vertex -26.91 3.5500000000000003 1.75
      vertex -20.91 3.5500000000000003 1.75
    endloop
  endfacet
  facet normal 0 -0.9659258262890685 0.25881904510251963
    outer loop
      vertex -26.91 3.5834936490538905 1.875
      vertex -20.91 3.5500000000000003 1.75
      vertex -20.91 3.5834936490538905 1.875
    endloop
  endfacet
  facet normal 0 -0.9659258262890685 -0.25881904510251963
    outer loop
      vertex -26.91 3.5500000000000003 1.75
      vertex -26.91 3.5834936490538905 1.625
      vertex -20.91 3.5834936490538905 1.625
    endloop
  endfacet
  facet normal 0 -0.9659258262890685 -0.25881904510251963
    outer loop
      vertex -26.91 3.5500000000000003 1.75
      vertex -20.91 3.5834936490538905 1.625
      vertex -20.91 3.5500000000000003 1.75
    endloop
  endfacet
  facet normal 0 -0.7071067811865287 -0.7071067811865664
    outer loop
      vertex -26.91 3.5834936490538905 1.625
      vertex -20.91 3.6750000000000003 1.533493649053895
      vertex -20.91 3.5834936490538905 1.625
    endloop
  endfacet
  facet normal -1 0 0
    outer loop
      vertex -26.91 3.5834936490538905 1.625
      vertex -26.91 3.8000000000000003 1.5
      vertex -26.91 3.6750000000000003 1.533493649053895
    endloop
  endfacet
  facet normal 5.446799769617814e-19 -0.7071067811865287 -0.7071067811865664
    outer loop
      vertex -26.91 3.5834936490538905 1.625
      vertex -26.91 3.6750000000000003 1.533493649053895
      vertex -20.91 3.6750000000000003 1.533493649053895
    endloop
  endfacet
  facet normal 0 -0.2588190451025549 -0.9659258262890591
    outer loop
      vertex -26.91 3.6750000000000003 1.533493649053895
      vertex -26.91 3.8000000000000003 1.5
      vertex -20.91 3.6750000000000003 1.533493649053895
    endloop
  endfacet
  facet normal 0 -0.2588190451025549 -0.9659258262890591
    outer loop
      vertex -26.91 3.8000000000000003 1.5
      vertex -20.91 3.8000000000000003 1.5
      vertex -20.91 3.6750000000000003 1.533493649053895
    endloop
  endfacet
  facet normal 1 0 0
    outer loop
      vertex -20.91 3.8000000000000003 2
      vertex -20.91 3.6750000000000003 1.966506350946105
      vertex -20.91 3.5834936490538905 1.875
    endloop
  endfacet
  facet normal 1 0 0
    outer loop
      vertex -20.91 3.8000000000000003 2
      vertex -20.91 3.5834936490538905 1.875
      vertex -20.91 3.5500000000000003 1.75
    endloop
  endfacet
  facet normal 1 0 0
    outer loop
      vertex -20.91 3.8000000000000003 2
      vertex -20.91 3.5500000000000003 1.75
      vertex -20.91 3.5834936490538905 1.625
    endloop
  endfacet
  facet normal 1 0 0
    outer loop
      vertex -20.91 3.8000000000000003 2
      vertex -20.91 3.5834936490538905 1.625
      vertex -20.91 3.6750000000000003 1.533493649053895
    endloop
  endfacet
  facet normal 1 0 0
    outer loop
      vertex -20.91 3.8000000000000003 2
      vertex -20.91 3.6750000000000003 1.533493649053895
      vertex -20.91 3.8000000000000003 1.5
    endloop
  endfacet
  facet normal -1 0 0
    outer loop
      vertex -26.91 12 2
      vertex -26.91 12.125 1.966506350946105
      vertex -26.91 12.21650635094611 1.875
    endloop
  endfacet
  facet normal 0 0.2588190451025549 0.9659258262890591
    outer loop
      vertex -26.91 12 2
      vertex -20.91 12.125 1.966506350946105
      vertex -26.91 12.125 1.966506350946105
    endloop
  endfacet
  facet normal 0 0.7071067811865269 0.7071067811865681
    outer loop
      vertex -26.91 12.125 1.966506350946105
      vertex -20.91 12.125 1.966506350946105
      vertex -26.91 12.21650635094611 1.875
    endloop
  endfacet
  facet normal 0 0.2588190451025549 0.9659258262890591
    outer loop
      vertex -26.91 12 2
      vertex -20.91 12 2
      vertex -20.91 12.125 1.966506350946105
    endloop
  endfacet
  facet normal -1 0 0
    outer loop
      vertex -26.91 12 2
      vertex -26.91 12.21650635094611 1.875
      vertex -26.91 12.25 1.75
    endloop
  endfacet
  facet normal -1 0 0
    outer loop
      vertex -26.91 12 2
      vertex -26.91 12.25 1.75
      vertex -26.91 12.21650635094611 1.625
    endloop
  endfacet
  facet normal -1 0 0
    outer loop
      vertex -26.91 12 2
      vertex -26.91 12.21650635094611 1.625
      vertex -26.91 12.125 1.533493649053895
    endloop
  endfacet
  facet normal -1 0 0
    outer loop
      vertex -26.91 12 2
      vertex -26.91 12.125 1.533493649053895
      vertex -26.91 12 1.5
    endloop
  endfacet
  facet normal 0 0.7071067811865269 0.7071067811865681
    outer loop
      vertex -26.91 12.21650635094611 1.875
      vertex -20.91 12.125 1.966506350946105
      vertex -20.91 12.21650635094611 1.875
    endloop
  endfacet
  facet normal 0 0.9659258262890694 0.25881904510251647
    outer loop
      vertex -26.91 12.21650635094611 1.875
      vertex -20.91 12.21650635094611 1.875
      vertex -26.91 12.25 1.75
    endloop
  endfacet
  facet normal 0 0.9659258262890694 0.25881904510251647
    outer loop
      vertex -26.91 12.25 1.75
      vertex -20.91 12.21650635094611 1.875
      vertex -20.91 12.25 1.75
    endloop
  endfacet
  facet normal 0 0.7071067811865269 -0.7071067811865681
    outer loop
      vertex -26.91 12.21650635094611 1.625
      vertex -20.91 12.21650635094611 1.625
      vertex -26.91 12.125 1.533493649053895
    endloop
  endfacet
  facet normal 0 0.9659258262890694 -0.25881904510251647
    outer loop
      vertex -26.91 12.25 1.75
      vertex -20.91 12.25 1.75
      vertex -26.91 12.21650635094611 1.625
    endloop
  endfacet
  facet normal 0 0.9659258262890694 -0.25881904510251647
    outer loop
      vertex -26.91 12.21650635094611 1.625
      vertex -20.91 12.25 1.75
      vertex -20.91 12.21650635094611 1.625
    endloop
  endfacet
  facet normal 0 0.2588190451025549 -0.9659258262890591
    outer loop
      vertex -26.91 12.125 1.533493649053895
      vertex -20.91 12 1.5
      vertex -26.91 12 1.5
    endloop
  endfacet
  facet normal 0 0.7071067811865269 -0.7071067811865681
    outer loop
      vertex -26.91 12.125 1.533493649053895
      vertex -20.91 12.21650635094611 1.625
      vertex -20.91 12.125 1.533493649053895
    endloop
  endfacet
  facet normal 0 0.2588190451025549 -0.9659258262890591
    outer loop
      vertex -26.91 12.125 1.533493649053895
      vertex -20.91 12.125 1.533493649053895
      vertex -20.91 12 1.5
    endloop
  endfacet
  facet normal 1 0 0
    outer loop
      vertex -20.91 12 2
      vertex -20.91 12 1.5
      vertex -20.91 12.125 1.966506350946105
    endloop
  endfacet
  facet normal 1 0 0
    outer loop
      vertex -20.91 12.125 1.966506350946105
      vertex -20.91 12 1.5
      vertex -20.91 12.21650635094611 1.875
    endloop
  endfacet
  facet normal 1 0 0
    outer loop
      vertex -20.91 12.21650635094611 1.875
      vertex -20.91 12 1.5
      vertex -20.91 12.25 1.75
    endloop
  endfacet
  facet normal 1 0 0
    outer loop
      vertex -20.91 12.25 1.75
      vertex -20.91 12 1.5
      vertex -20.91 12.21650635094611 1.625
    endloop
  endfacet
  facet normal 1 0 0
    outer loop
      vertex -20.91 12.21650635094611 1.625
      vertex -20.91 12 1.5
      vertex -20.91 12.125 1.533493649053895
    endloop
  endfacet
  facet normal 0 -0.2588190451025549 0.9659258262890591
    outer loop
      vertex -3 3.8000000000000003 2
      vertex -3 3.6750000000000003 1.966506350946105
      vertex 3 3.8000000000000003 2
    endloop
  endfacet
  facet normal -1 0 0
    outer loop
      vertex -3 3.8000000000000003 2
      vertex -3 3.8000000000000003 1.5
      vertex -3 3.6750000000000003 1.966506350946105
    endloop
  endfacet
  facet normal -1 0 0
    outer loop
      vertex -3 3.6750000000000003 1.966506350946105
      vertex -3 3.8000000000000003 1.5
      vertex -3 3.5834936490538905 1.875
    endloop
  endfacet
  facet normal -5.446799769617814e-19 -0.7071067811865287 0.7071067811865664
    outer loop
      vertex -3 3.6750000000000003 1.966506350946105
      vertex -3 3.5834936490538905 1.875
      vertex 3 3.5834936490538905 1.875
    endloop
  endfacet
  facet normal 0 -0.9659258262890685 0.25881904510251963
    outer loop
      vertex -3 3.5834936490538905 1.875
      vertex -3 3.5500000000000003 1.75
      vertex 3 3.5500000000000003 1.75
    endloop
  endfacet
  facet normal -1 0 0
    outer loop
      vertex -3 3.5834936490538905 1.875
      vertex -3 3.8000000000000003 1.5
      vertex -3 3.5500000000000003 1.75
    endloop
  endfacet
  facet normal -1 0 0
    outer loop
      vertex -3 3.5500000000000003 1.75
      vertex -3 3.8000000000000003 1.5
      vertex -3 3.5834936490538905 1.625
    endloop
  endfacet
  facet normal 0 -0.9659258262890685 -0.25881904510251963
    outer loop
      vertex -3 3.5500000000000003 1.75
      vertex -3 3.5834936490538905 1.625
      vertex 3 3.5834936490538905 1.625
    endloop
  endfacet
  facet normal -1 0 0
    outer loop
      vertex -3 3.5834936490538905 1.625
      vertex -3 3.8000000000000003 1.5
      vertex -3 3.6750000000000003 1.533493649053895
    endloop
  endfacet
  facet normal 5.446799769617814e-19 -0.7071067811865287 -0.7071067811865664
    outer loop
      vertex -3 3.5834936490538905 1.625
      vertex -3 3.6750000000000003 1.533493649053895
      vertex 3 3.6750000000000003 1.533493649053895
    endloop
  endfacet
  facet normal 0 -0.2588190451025549 -0.9659258262890591
    outer loop
      vertex -3 3.6750000000000003 1.533493649053895
      vertex -3 3.8000000000000003 1.5
      vertex 3 3.6750000000000003 1.533493649053895
    endloop
  endfacet
  facet normal 0 -0.2588190451025549 0.9659258262890591
    outer loop
      vertex -3 3.6750000000000003 1.966506350946105
      vertex 3 3.6750000000000003 1.966506350946105
      vertex 3 3.8000000000000003 2
    endloop
  endfacet
  facet normal 0 -0.7071067811865287 0.7071067811865664
    outer loop
      vertex -3 3.6750000000000003 1.966506350946105
      vertex 3 3.5834936490538905 1.875
      vertex 3 3.6750000000000003 1.966506350946105
    endloop
  endfacet
  facet normal 1 0 0
    outer loop
      vertex 3 3.8000000000000003 2
      vertex 3 3.6750000000000003 1.966506350946105
      vertex 3 3.5834936490538905 1.875
    endloop
  endfacet
  facet normal 0 -0.9659258262890685 0.25881904510251963
    outer loop
      vertex -3 3.5834936490538905 1.875
      vertex 3 3.5500000000000003 1.75
      vertex 3 3.5834936490538905 1.875
    endloop
  endfacet
  facet normal 1 0 0
    outer loop
      vertex 3 3.8000000000000003 2
      vertex 3 3.5834936490538905 1.875
      vertex 3 3.5500000000000003 1.75
    endloop
  endfacet
  facet normal 1 0 0
    outer loop
      vertex 3 3.8000000000000003 2
      vertex 3 3.5500000000000003 1.75
      vertex 3 3.5834936490538905 1.625
    endloop
  endfacet
  facet normal 0 -0.9659258262890685 -0.25881904510251963
    outer loop
      vertex -3 3.5500000000000003 1.75
      vertex 3 3.5834936490538905 1.625
      vertex 3 3.5500000000000003 1.75
    endloop
  endfacet
  facet normal 0 -0.7071067811865287 -0.7071067811865664
    outer loop
      vertex -3 3.5834936490538905 1.625
      vertex 3 3.6750000000000003 1.533493649053895
      vertex 3 3.5834936490538905 1.625
    endloop
  endfacet
  facet normal 1 0 0
    outer loop
      vertex 3 3.8000000000000003 2
      vertex 3 3.5834936490538905 1.625
      vertex 3 3.6750000000000003 1.533493649053895
    endloop
  endfacet
  facet normal 1 0 0
    outer loop
      vertex 3 3.8000000000000003 2
      vertex 3 3.6750000000000003 1.533493649053895
      vertex 3 3.8000000000000003 1.5
    endloop
  endfacet
  facet normal 0 -0.2588190451025549 -0.9659258262890591
    outer loop
      vertex -3 3.8000000000000003 1.5
      vertex 3 3.8000000000000003 1.5
      vertex 3 3.6750000000000003 1.533493649053895
    endloop
  endfacet
  facet normal -1 0 0
    outer loop
      vertex -3 12 2
      vertex -3 12.125 1.966506350946105
      vertex -3 12.21650635094611 1.875
    endloop
  endfacet
  facet normal 0 0.2588190451025549 0.9659258262890591
    outer loop
      vertex -3 12 2
      vertex 3 12.125 1.966506350946105
      vertex -3 12.125 1.966506350946105
    endloop
  endfacet
  facet normal 0 0.7071067811865269 0.7071067811865681
    outer loop
      vertex -3 12.125 1.966506350946105
      vertex 3 12.125 1.966506350946105
      vertex -3 12.21650635094611 1.875
    endloop
  endfacet
  facet normal -1 0 0
    outer loop
      vertex -3 12 2
      vertex -3 12.21650635094611 1.875
      vertex -3 12.25 1.75
    endloop
  endfacet
  facet normal -1 0 0
    outer loop
      vertex -3 12 2
      vertex -3 12.25 1.75
      vertex -3 12.21650635094611 1.625
    endloop
  endfacet
  facet normal 0 0.9659258262890694 0.25881904510251647
    outer loop
      vertex -3 12.21650635094611 1.875
      vertex 3 12.21650635094611 1.875
      vertex -3 12.25 1.75
    endloop
  endfacet
  facet normal -1 0 0
    outer loop
      vertex -3 12 2
      vertex -3 12.21650635094611 1.625
      vertex -3 12.125 1.533493649053895
    endloop
  endfacet
  facet normal -1 0 0
    outer loop
      vertex -3 12 2
      vertex -3 12.125 1.533493649053895
      vertex -3 12 1.5
    endloop
  endfacet
  facet normal 0 0.7071067811865269 -0.7071067811865681
    outer loop
      vertex -3 12.21650635094611 1.625
      vertex 3 12.21650635094611 1.625
      vertex -3 12.125 1.533493649053895
    endloop
  endfacet
  facet normal 0 0.9659258262890694 -0.25881904510251647
    outer loop
      vertex -3 12.25 1.75
      vertex 3 12.25 1.75
      vertex -3 12.21650635094611 1.625
    endloop
  endfacet
  facet normal 0 0.2588190451025549 -0.9659258262890591
    outer loop
      vertex -3 12.125 1.533493649053895
      vertex 3 12 1.5
      vertex -3 12 1.5
    endloop
  endfacet
  facet normal 0 0.2588190451025549 0.9659258262890591
    outer loop
      vertex -3 12 2
      vertex 3 12 2
      vertex 3 12.125 1.966506350946105
    endloop
  endfacet
  facet normal 0 0.7071067811865269 0.7071067811865681
    outer loop
      vertex -3 12.21650635094611 1.875
      vertex 3 12.125 1.966506350946105
      vertex 3 12.21650635094611 1.875
    endloop
  endfacet
  facet normal 1 0 0
    outer loop
      vertex 3 12 2
      vertex 3 12 1.5
      vertex 3 12.125 1.966506350946105
    endloop
  endfacet
  facet normal 1 0 0
    outer loop
      vertex 3 12.125 1.966506350946105
      vertex 3 12 1.5
      vertex 3 12.21650635094611 1.875
    endloop
  endfacet
  facet normal 0 0.9659258262890694 0.25881904510251647
    outer loop
      vertex -3 12.25 1.75
      vertex 3 12.21650635094611 1.875
      vertex 3 12.25 1.75
    endloop
  endfacet
  facet normal 1 0 0
    outer loop
      vertex 3 12.21650635094611 1.875
      vertex 3 12 1.5
      vertex 3 12.25 1.75
    endloop
  endfacet
  facet normal 1 0 0
    outer loop
      vertex 3 12.25 1.75
      vertex 3 12 1.5
      vertex 3 12.21650635094611 1.625
    endloop
  endfacet
  facet normal 0 0.9659258262890694 -0.25881904510251647
    outer loop
      vertex -3 12.21650635094611 1.625
      vertex 3 12.25 1.75
      vertex 3 12.21650635094611 1.625
    endloop
  endfacet
  facet normal 0 0.7071067811865269 -0.7071067811865681
    outer loop
      vertex -3 12.125 1.533493649053895
      vertex 3 12.21650635094611 1.625
      vertex 3 12.125 1.533493649053895
    endloop
  endfacet
  facet normal 0 0.2588190451025549 -0.9659258262890591
    outer loop
      vertex -3 12.125 1.533493649053895
      vertex 3 12.125 1.533493649053895
      vertex 3 12 1.5
    endloop
  endfacet
  facet normal 1 0 0
    outer loop
      vertex 3 12.21650635094611 1.625
      vertex 3 12 1.5
      vertex 3 12.125 1.533493649053895
    endloop
  endfacet
  facet normal -1 0 0
    outer loop
      vertex 20.91 3.8000000000000003 2
      vertex 20.91 3.8000000000000003 1.5
      vertex 20.91 3.6750000000000003 1.966506350946105
    endloop
  endfacet
  facet normal -1 0 0
    outer loop
      vertex 20.91 3.6750000000000003 1.966506350946105
      vertex 20.91 3.8000000000000003 1.5
      vertex 20.91 3.5834936490538905 1.875
    endloop
  endfacet
  facet normal -1 0 0
    outer loop
      vertex 20.91 3.5834936490538905 1.875
      vertex 20.91 3.8000000000000003 1.5
      vertex 20.91 3.5500000000000003 1.75
    endloop
  endfacet
  facet normal -1 0 0
    outer loop
      vertex 20.91 3.5500000000000003 1.75
      vertex 20.91 3.8000000000000003 1.5
      vertex 20.91 3.5834936490538905 1.625
    endloop
  endfacet
  facet normal -1 0 0
    outer loop
      vertex 20.91 3.5834936490538905 1.625
      vertex 20.91 3.8000000000000003 1.5
      vertex 20.91 3.6750000000000003 1.533493649053895
    endloop
  endfacet
  facet normal 0 -0.2588190451025549 0.9659258262890591
    outer loop
      vertex 20.91 3.8000000000000003 2
      vertex 20.91 3.6750000000000003 1.966506350946105
      vertex 26.91 3.8000000000000003 2
    endloop
  endfacet
  facet normal 0 -0.2588190451025549 0.9659258262890591
    outer loop
      vertex 20.91 3.6750000000000003 1.966506350946105
      vertex 26.91 3.6750000000000003 1.966506350946105
      vertex 26.91 3.8000000000000003 2
    endloop
  endfacet
  facet normal 0 -0.7071067811865287 0.7071067811865664
    outer loop
      vertex 20.91 3.6750000000000003 1.966506350946105
      vertex 26.91 3.5834936490538905 1.875
      vertex 26.91 3.6750000000000003 1.966506350946105
    endloop
  endfacet
  facet normal 1 0 0
    outer loop
      vertex 26.91 3.8000000000000003 2
      vertex 26.91 3.6750000000000003 1.966506350946105
      vertex 26.91 3.5834936490538905 1.875
    endloop
  endfacet
  facet normal -5.446799769617814e-19 -0.7071067811865287 0.7071067811865664
    outer loop
      vertex 20.91 3.6750000000000003 1.966506350946105
      vertex 20.91 3.5834936490538905 1.875
      vertex 26.91 3.5834936490538905 1.875
    endloop
  endfacet
  facet normal 0 -0.9659258262890685 0.25881904510251963
    outer loop
      vertex 20.91 3.5834936490538905 1.875
      vertex 20.91 3.5500000000000003 1.75
      vertex 26.91 3.5500000000000003 1.75
    endloop
  endfacet
  facet normal 0 -0.9659258262890685 0.25881904510251963
    outer loop
      vertex 20.91 3.5834936490538905 1.875
      vertex 26.91 3.5500000000000003 1.75
      vertex 26.91 3.5834936490538905 1.875
    endloop
  endfacet
  facet normal 0 -0.9659258262890685 -0.25881904510251963
    outer loop
      vertex 20.91 3.5500000000000003 1.75
      vertex 20.91 3.5834936490538905 1.625
      vertex 26.91 3.5834936490538905 1.625
    endloop
  endfacet
  facet normal 0 -0.9659258262890685 -0.25881904510251963
    outer loop
      vertex 20.91 3.5500000000000003 1.75
      vertex 26.91 3.5834936490538905 1.625
      vertex 26.91 3.5500000000000003 1.75
    endloop
  endfacet
  facet normal 0 -0.7071067811865287 -0.7071067811865664
    outer loop
      vertex 20.91 3.5834936490538905 1.625
      vertex 26.91 3.6750000000000003 1.533493649053895
      vertex 26.91 3.5834936490538905 1.625
    endloop
  endfacet
  facet normal 1 0 0
    outer loop
      vertex 26.91 3.8000000000000003 2
      vertex 26.91 3.5834936490538905 1.875
      vertex 26.91 3.5500000000000003 1.75
    endloop
  endfacet
  facet normal 1 0 0
    outer loop
      vertex 26.91 3.8000000000000003 2
      vertex 26.91 3.5500000000000003 1.75
      vertex 26.91 3.5834936490538905 1.625
    endloop
  endfacet
  facet normal 1 0 0
    outer loop
      vertex 26.91 3.8000000000000003 2
      vertex 26.91 3.5834936490538905 1.625
      vertex 26.91 3.6750000000000003 1.533493649053895
    endloop
  endfacet
  facet normal 1 0 0
    outer loop
      vertex 26.91 3.8000000000000003 2
      vertex 26.91 3.6750000000000003 1.533493649053895
      vertex 26.91 3.8000000000000003 1.5
    endloop
  endfacet
  facet normal 5.446799769617814e-19 -0.7071067811865287 -0.7071067811865664
    outer loop
      vertex 20.91 3.5834936490538905 1.625
      vertex 20.91 3.6750000000000003 1.533493649053895
      vertex 26.91 3.6750000000000003 1.533493649053895
    endloop
  endfacet
  facet normal 0 -0.2588190451025549 -0.9659258262890591
    outer loop
      vertex 20.91 3.6750000000000003 1.533493649053895
      vertex 20.91 3.8000000000000003 1.5
      vertex 26.91 3.6750000000000003 1.533493649053895
    endloop
  endfacet
  facet normal 0 -0.2588190451025549 -0.9659258262890591
    outer loop
      vertex 20.91 3.8000000000000003 1.5
      vertex 26.91 3.8000000000000003 1.5
      vertex 26.91 3.6750000000000003 1.533493649053895
    endloop
  endfacet
  facet normal -1 0 0
    outer loop
      vertex 20.91 12 2
      vertex 20.91 12.125 1.966506350946105
      vertex 20.91 12.21650635094611 1.875
    endloop
  endfacet
  facet normal -1 0 0
    outer loop
      vertex 20.91 12 2
      vertex 20.91 12.21650635094611 1.875
      vertex 20.91 12.25 1.75
    endloop
  endfacet
  facet normal -1 0 0
    outer loop
      vertex 20.91 12 2
      vertex 20.91 12.25 1.75
      vertex 20.91 12.21650635094611 1.625
    endloop
  endfacet
  facet normal -1 0 0
    outer loop
      vertex 20.91 12 2
      vertex 20.91 12.21650635094611 1.625
      vertex 20.91 12.125 1.533493649053895
    endloop
  endfacet
  facet normal -1 0 0
    outer loop
      vertex 20.91 12 2
      vertex 20.91 12.125 1.533493649053895
      vertex 20.91 12 1.5
    endloop
  endfacet
  facet normal 0 0.2588190451025549 0.9659258262890591
    outer loop
      vertex 20.91 12 2
      vertex 26.91 12.125 1.966506350946105
      vertex 20.91 12.125 1.966506350946105
    endloop
  endfacet
  facet normal 0 0.7071067811865269 0.7071067811865681
    outer loop
      vertex 20.91 12.125 1.966506350946105
      vertex 26.91 12.125 1.966506350946105
      vertex 20.91 12.21650635094611 1.875
    endloop
  endfacet
  facet normal 0 0.2588190451025549 0.9659258262890591
    outer loop
      vertex 20.91 12 2
      vertex 26.91 12 2
      vertex 26.91 12.125 1.966506350946105
    endloop
  endfacet
  facet normal 0 0.7071067811865269 0.7071067811865681
    outer loop
      vertex 20.91 12.21650635094611 1.875
      vertex 26.91 12.125 1.966506350946105
      vertex 26.91 12.21650635094611 1.875
    endloop
  endfacet
  facet normal 0 0.9659258262890694 0.25881904510251647
    outer loop
      vertex 20.91 12.21650635094611 1.875
      vertex 26.91 12.21650635094611 1.875
      vertex 20.91 12.25 1.75
    endloop
  endfacet
  facet normal 0 0.9659258262890694 0.25881904510251647
    outer loop
      vertex 20.91 12.25 1.75
      vertex 26.91 12.21650635094611 1.875
      vertex 26.91 12.25 1.75
    endloop
  endfacet
  facet normal 0 0.7071067811865269 -0.7071067811865681
    outer loop
      vertex 20.91 12.21650635094611 1.625
      vertex 26.91 12.21650635094611 1.625
      vertex 20.91 12.125 1.533493649053895
    endloop
  endfacet
  facet normal 0 0.9659258262890694 -0.25881904510251647
    outer loop
      vertex 20.91 12.25 1.75
      vertex 26.91 12.25 1.75
      vertex 20.91 12.21650635094611 1.625
    endloop
  endfacet
  facet normal 0 0.9659258262890694 -0.25881904510251647
    outer loop
      vertex 20.91 12.21650635094611 1.625
      vertex 26.91 12.25 1.75
      vertex 26.91 12.21650635094611 1.625
    endloop
  endfacet
  facet normal 1 0 0
    outer loop
      vertex 26.91 12 2
      vertex 26.91 12 1.5
      vertex 26.91 12.125 1.966506350946105
    endloop
  endfacet
  facet normal 1 0 0
    outer loop
      vertex 26.91 12.125 1.966506350946105
      vertex 26.91 12 1.5
      vertex 26.91 12.21650635094611 1.875
    endloop
  endfacet
  facet normal 1 0 0
    outer loop
      vertex 26.91 12.21650635094611 1.875
      vertex 26.91 12 1.5
      vertex 26.91 12.25 1.75
    endloop
  endfacet
  facet normal 1 0 0
    outer loop
      vertex 26.91 12.25 1.75
      vertex 26.91 12 1.5
      vertex 26.91 12.21650635094611 1.625
    endloop
  endfacet
  facet normal 0 0.2588190451025549 -0.9659258262890591
    outer loop
      vertex 20.91 12.125 1.533493649053895
      vertex 26.91 12 1.5
      vertex 20.91 12 1.5
    endloop
  endfacet
  facet normal 0 0.7071067811865269 -0.7071067811865681
    outer loop
      vertex 20.91 12.125 1.533493649053895
      vertex 26.91 12.21650635094611 1.625
      vertex 26.91 12.125 1.533493649053895
    endloop
  endfacet
  facet normal 0 0.2588190451025549 -0.9659258262890591
    outer loop
      vertex 20.91 12.125 1.533493649053895
      vertex 26.91 12.125 1.533493649053895
      vertex 26.91 12 1.5
    endloop
  endfacet
  facet normal 1 0 0
    outer loop
      vertex 26.91 12.21650635094611 1.625
      vertex 26.91 12 1.5
      vertex 26.91 12.125 1.533493649053895
    endloop
  endfacet
  facet normal 0 0 1
    outer loop
      vertex -42.35 2.3000000000000003 0.9500000000000028
      vertex -39.85 3.8000000000000003 0.9500000000000028
      vertex -39.85 12 0.9500000000000028
    endloop
  endfacet
  facet normal 0 0 1
    outer loop
      vertex -38.85 4.800000000000001 0.9500000000000028
      vertex -32 4.800000000000001 0.9500000000000028
      vertex -32 11 0.9500000000000028
    endloop
  endfacet
  facet normal -1 0 0
    outer loop
      vertex -42.35 2.3000000000000003 0.9500000000000028
      vertex -42.35 14.5 0
      vertex -42.35 2.3000000000000003 0
    endloop
  endfacet
  facet normal 0 0 -1
    outer loop
      vertex -42.35 2.3000000000000003 0
      vertex -42.35 14.5 0
      vertex -32 3.9000000000000004 0
    endloop
  endfacet
  facet normal 0 0 1
    outer loop
      vertex -42.35 2.3000000000000003 0.9500000000000028
      vertex 39.85 3.8000000000000003 0.9500000000000028
      vertex -39.85 3.8000000000000003 0.9500000000000028
    endloop
  endfacet
  facet normal 0 -1 0
    outer loop
      vertex -42.35 2.3000000000000003 0.9500000000000028
      vertex -42.35 2.3000000000000003 0
      vertex 42.35 2.3000000000000003 0
    endloop
  endfacet
  facet normal 0 0 -1
    outer loop
      vertex -42.35 2.3000000000000003 0
      vertex -32 3.9000000000000004 0
      vertex 42.35 2.3000000000000003 0
    endloop
  endfacet
  facet normal 0 0 -1
    outer loop
      vertex 42.35 2.3000000000000003 0
      vertex -32 3.9000000000000004 0
      vertex -18 3.9000000000000004 0
    endloop
  endfacet
  facet normal 0 0 1
    outer loop
      vertex -42.35 2.3000000000000003 0.9500000000000028
      vertex -39.85 12 0.9500000000000028
      vertex -42.35 14.5 0.9500000000000028
    endloop
  endfacet
  facet normal 0 0 1
    outer loop
      vertex -38.85 4.800000000000001 0.9500000000000028
      vertex -32 11 0.9500000000000028
      vertex -38.85 11 0.9500000000000028
    endloop
  endfacet
  facet normal -1 0 0
    outer loop
      vertex -42.35 2.3000000000000003 0.9500000000000028
      vertex -42.35 14.5 0.9500000000000028
      vertex -42.35 14.5 0
    endloop
  endfacet
  facet normal 0 0 -1
    outer loop
      vertex -42.35 14.5 0
      vertex -32 11.9 0
      vertex -32 3.9000000000000004 0
    endloop
  endfacet
  facet normal 0 0 1
    outer loop
      vertex -39.85 12 0.9500000000000028
      vertex 39.85 12 0.9500000000000028
      vertex -42.35 14.5 0.9500000000000028
    endloop
  endfacet
  facet normal 0 1 0
    outer loop
      vertex -42.35 14.5 0.9500000000000028
      vertex 42.35 14.5 0.9500000000000028
      vertex -42.35 14.5 0
    endloop
  endfacet
  facet normal 0 0 -1
    outer loop
      vertex -42.35 14.5 0
      vertex 42.35 14.5 0
      vertex -32 11.9 0
    endloop
  endfacet
  facet normal 0 0 -1
    outer loop
      vertex 42.35 14.5 0
      vertex -18 11.9 0
      vertex -32 11.9 0
    endloop
  endfacet
  facet normal 0 0 1
    outer loop
      vertex -42.35 2.3000000000000003 0.9500000000000028
      vertex 42.35 2.3000000000000003 0.9500000000000028
      vertex 39.85 3.8000000000000003 0.9500000000000028
    endloop
  endfacet
  facet normal 0 0 1
    outer loop
      vertex 38.85 4.800000000000001 0.9500000000000028
      vertex 38.85 11 0.9500000000000028
      vertex -18 4.800000000000001 0.9500000000000028
    endloop
  endfacet
  facet normal 0 -1 0
    outer loop
      vertex -42.35 2.3000000000000003 0.9500000000000028
      vertex 42.35 2.3000000000000003 0
      vertex 42.35 2.3000000000000003 0.9500000000000028
    endloop
  endfacet
  facet normal 0 0 -1
    outer loop
      vertex 42.35 2.3000000000000003 0
      vertex -18 3.9000000000000004 0
      vertex -18 11.9 0
    endloop
  endfacet
  facet normal 0 0 1
    outer loop
      vertex 42.35 2.3000000000000003 0.9500000000000028
      vertex 39.85 12 0.9500000000000028
      vertex 39.85 3.8000000000000003 0.9500000000000028
    endloop
  endfacet
  facet normal 1 0 0
    outer loop
      vertex 42.35 2.3000000000000003 0.9500000000000028
      vertex 42.35 2.3000000000000003 0
      vertex 42.35 14.5 0.9500000000000028
    endloop
  endfacet
  facet normal 0 0 1
    outer loop
      vertex 38.85 11 0.9500000000000028
      vertex -18 11 0.9500000000000028
      vertex -18 4.800000000000001 0.9500000000000028
    endloop
  endfacet
  facet normal 0 0 1
    outer loop
      vertex -42.35 14.5 0.9500000000000028
      vertex 39.85 12 0.9500000000000028
      vertex 42.35 14.5 0.9500000000000028
    endloop
  endfacet
  facet normal 0 1 0
    outer loop
      vertex -42.35 14.5 0
      vertex 42.35 14.5 0.9500000000000028
      vertex 42.35 14.5 0
    endloop
  endfacet
  facet normal 0 0 1
    outer loop
      vertex 42.35 2.3000000000000003 0.9500000000000028
      vertex 42.35 14.5 0.9500000000000028
      vertex 39.85 12 0.9500000000000028
    endloop
  endfacet
  facet normal 0 0 -1
    outer loop
      vertex 42.35 2.3000000000000003 0
      vertex -18 11.9 0
      vertex 42.35 14.5 0
    endloop
  endfacet
  facet normal 1 0 0
    outer loop
      vertex 42.35 2.3000000000000003 0
      vertex 42.35 14.5 0
      vertex 42.35 14.5 0.9500000000000028
    endloop
  endfacet
  facet normal 1 0 0
    outer loop
      vertex -32 4.800000000000001 0.9500000000000028
      vertex -32 4.800000000000001 2.5500000000000043
      vertex -32 3.9000000000000004 2.5500000000000043
    endloop
  endfacet
  facet normal 0 1 0
    outer loop
      vertex -32 3.9000000000000004 2.5500000000000043
      vertex -18 3.9000000000000004 2.5500000000000043
      vertex -18 3.9000000000000004 0
    endloop
  endfacet
  facet normal -1 0 0
    outer loop
      vertex -18 4.800000000000001 2.5500000000000043
      vertex -18 4.800000000000001 0.9500000000000028
      vertex -18 3.9000000000000004 2.5500000000000043
    endloop
  endfacet
  facet normal 1 0 0
    outer loop
      vertex -32 11 2.5500000000000043
      vertex -32 11 0.9500000000000028
      vertex -32 11.9 2.5500000000000043
    endloop
  endfacet
  facet normal 0 -1 0
    outer loop
      vertex -18 11.9 2.5500000000000043
      vertex -32 11.9 2.5500000000000043
      vertex -32 11.9 0
    endloop
  endfacet
  facet normal -1 0 0
    outer loop
      vertex -18 11 0.9500000000000028
      vertex -18 11 2.5500000000000043
      vertex -18 11.9 2.5500000000000043
    endloop
  endfacet
  facet normal 1 0 0
    outer loop
      vertex -32 4.800000000000001 0.9500000000000028
      vertex -32 3.9000000000000004 2.5500000000000043
      vertex -32 3.9000000000000004 0
    endloop
  endfacet
  facet normal 0 1 0
    outer loop
      vertex -32 3.9000000000000004 0
      vertex -32 3.9000000000000004 2.5500000000000043
      vertex -18 3.9000000000000004 0
    endloop
  endfacet
  facet normal 1 0 0
    outer loop
      vertex -32 4.800000000000001 0.9500000000000028
      vertex -32 3.9000000000000004 0
      vertex -32 11 0.9500000000000028
    endloop
  endfacet
  facet normal -1 0 0
    outer loop
      vertex -18 4.800000000000001 0.9500000000000028
      vertex -18 3.9000000000000004 0
      vertex -18 3.9000000000000004 2.5500000000000043
    endloop
  endfacet
  facet normal -1 0 0
    outer loop
      vertex -18 4.800000000000001 0.9500000000000028
      vertex -18 11.9 0
      vertex -18 3.9000000000000004 0
    endloop
  endfacet
  facet normal 1 0 0
    outer loop
      vertex -32 11 0.9500000000000028
      vertex -32 11.9 0
      vertex -32 11.9 2.5500000000000043
    endloop
  endfacet
  facet normal 0 -1 0
    outer loop
      vertex -32 11.9 0
      vertex -18 11.9 0
      vertex -18 11.9 2.5500000000000043
    endloop
  endfacet
  facet normal 1 0 0
    outer loop
      vertex -32 11 0.9500000000000028
      vertex -32 3.9000000000000004 0
      vertex -32 11.9 0
    endloop
  endfacet
  facet normal -1 0 0
    outer loop
      vertex -18 11 0.9500000000000028
      vertex -18 11.9 2.5500000000000043
      vertex -18 11.9 0
    endloop
  endfacet
  facet normal -1 0 0
    outer loop
      vertex -18 11.9 0
      vertex -18 4.800000000000001 0.9500000000000028
      vertex -18 11 0.9500000000000028
    endloop
  endfacet
endsolid OpenSCAD_Model
